<?xml version="1.0" encoding="iso-8859-1"?>
<!-- Generator: Adobe Illustrator 16.0.0, SVG Export Plug-In . SVG Version: 6.00 Build 0)  -->
<!DOCTYPE svg PUBLIC "-//W3C//DTD SVG 1.1//EN" "http://www.w3.org/Graphics/SVG/1.1/DTD/svg11.dtd">
<svg version="1.1" id="Capa_1" xmlns="http://www.w3.org/2000/svg" xmlns:xlink="http://www.w3.org/1999/xlink" x="0px" y="0px"
	 width="46.999px" height="47px" viewBox="0 0 46.999 47" style="enable-background:new 0 0 46.999 47;" xml:space="preserve">
<g>
	<g>
		<path d="M23.498,15.616c-1.724,0-3.127,1.406-3.127,3.133v3.052h6.254v-3.052C26.625,17.022,25.223,15.616,23.498,15.616z"/>
		<path d="M43.863,22.521c0.003-0.054,0.02-0.106,0.02-0.163c0-4.356-3.529-7.886-7.88-7.886c-1.444,0-2.782,0.417-3.944,1.095
			c-1.929-4.931-6.715-8.429-12.327-8.429c-6.286,0-11.539,4.386-12.891,10.26C2.882,18.592,0,22.262,0,26.606
			c0,5.313,4.307,9.621,9.62,9.621c1.557,0,3.024-0.378,4.324-1.037c1.685,2.792,4.738,4.671,8.24,4.671
			c3.542,0,6.625-1.923,8.296-4.771c1.066,0.852,2.398,1.381,3.867,1.381c3.441,0,6.229-2.79,6.229-6.229
			c0.637,0.383,1.376,0.616,2.174,0.616c2.345,0,4.248-1.903,4.248-4.252C47,24.647,45.668,23.017,43.863,22.521z M32.43,32.087
			c0,1.291-1.059,2.348-2.35,2.348H16.92c-1.291,0-2.349-1.057-2.349-2.348v-7.935c0-1.293,1.058-2.353,2.349-2.353h0.315v-3.052
			c0-3.452,2.809-6.263,6.263-6.263c3.456,0,6.266,2.811,6.266,6.263V21.8h0.316c1.291,0,2.35,1.06,2.35,2.353V32.087z"/>
	</g>
</g>
<g>
</g>
<g>
</g>
<g>
</g>
<g>
</g>
<g>
</g>
<g>
</g>
<g>
</g>
<g>
</g>
<g>
</g>
<g>
</g>
<g>
</g>
<g>
</g>
<g>
</g>
<g>
</g>
<g>
</g>
</svg>
