<svg xmlns="http://www.w3.org/2000/svg" x="0px" y="0px"
width="20" height="20"
viewBox="0 0 172 172"
style=" fill:#000000;"><g fill="none" fill-rule="nonzero" stroke="none" stroke-width="1" stroke-linecap="butt" stroke-linejoin="miter" stroke-miterlimit="10" stroke-dasharray="" stroke-dashoffset="0" font-family="none" font-weight="none" font-size="none" text-anchor="none" style="mix-blend-mode: normal"><path d="M0,172v-172h172v172z" fill="none"></path><g fill="#cccccc"><path d="M86.0301,152.48875c-6.9402,-4.21185 -80.6551,-49.9101 -80.6551,-89.06375c0,-20.26805 9.88355,-41.925 37.625,-41.925c19.8617,0 35.08155,13.61595 42.07765,25.27755l0.92235,1.53725l0.92235,-1.5351c7.3315,-12.22275 22.2353,-25.2797 42.07765,-25.2797c25.99135,0 37.625,21.0571 37.625,41.925c0,44.2384 -73.5773,85.2561 -80.5949,89.06375z"></path><path d="M129,22.575c25.24745,0 36.55,20.51745 36.55,40.85c0,42.67535 -69.9782,82.59655 -79.4898,87.8232c-9.4213,-5.77275 -79.6102,-50.0692 -79.6102,-87.8232c0,-19.74775 9.6019,-40.85 36.55,-40.85c19.4145,0 34.30325,13.33645 41.15745,24.7551l1.84255,3.0745l1.84255,-3.07235c7.18315,-11.96905 21.76445,-24.75725 41.15745,-24.75725M129,20.425c-19.9649,0 -35.3116,12.986 -43,25.8c-7.6884,-12.814 -23.33825,-25.8 -43,-25.8c-26.25365,0 -38.7,19.8187 -38.7,43c0,41.9723 81.7,90.3 81.7,90.3c0,0 81.7,-42.8968 81.7,-90.3c0,-22.9319 -13.20745,-43 -38.7,-43z"></path></g></g></svg>