<svg xmlns="http://www.w3.org/2000/svg" x="0px" y="0px"
width="18" height="18"
viewBox="0 0 172 172"
style=" fill:#000000;"><g fill="none" fill-rule="nonzero" stroke="none" stroke-width="1" stroke-linecap="butt" stroke-linejoin="miter" stroke-miterlimit="10" stroke-dasharray="" stroke-dashoffset="0" font-family="none" font-weight="none" font-size="none" text-anchor="none" style="mix-blend-mode: normal"><path d="M0,172v-172h172v172z" fill="none"></path><g><path d="M169.34609,86c0,-46.02344 -37.32266,-83.34609 -83.34609,-83.34609c-46.02344,0 -83.34609,37.32266 -83.34609,83.34609c0,46.02344 37.32266,83.34609 83.34609,83.34609c46.02344,0 83.34609,-37.32266 83.34609,-83.34609z" fill="#32bea6"></path><path d="M139.81719,92.48359v-12.96719l-12.29531,-3.86328c-1.04141,-4.16563 -2.6875,-8.09609 -4.87109,-11.69062l5.97969,-11.45547l-9.17109,-9.17109l-11.48906,5.97969c-3.56094,-2.15 -7.45781,-3.7625 -11.62344,-4.80391l-3.89687,-12.3625h-13.00078l-3.89687,12.3625c-4.13203,1.04141 -8.0625,2.65391 -11.62344,4.80391l-11.38828,-5.97969l-9.20469,9.20469l5.97969,11.45547c-2.15,3.59453 -3.82969,7.49141 -4.87109,11.69062l-12.29531,3.86328v12.96719l12.22813,3.86328c1.04141,4.19922 2.6875,8.16328 4.87109,11.79141l-5.9125,11.2875l9.17109,9.17109l11.32109,-5.9125c3.62812,2.18359 7.62578,3.86328 11.85859,4.90469l3.82969,12.16094h13.00078l3.82969,-12.16094c4.23281,-1.04141 8.19688,-2.72109 11.85859,-4.90469l11.32109,5.9125l9.17109,-9.17109l-5.9125,-11.35469c2.18359,-3.62812 3.82969,-7.59219 4.87109,-11.79141zM86,114.4875c-15.68828,0 -28.42031,-12.73203 -28.42031,-28.42031c0,-15.68828 12.73203,-28.42031 28.42031,-28.42031c15.68828,0 28.38672,12.73203 28.38672,28.42031c0,15.72187 -12.69844,28.42031 -28.38672,28.42031z" fill="#ffffff"></path></g></g></svg>